<svg xmlns="http://www.w3.org/2000/svg" xmlns:xlink="http://www.w3.org/1999/xlink" contentStyleType="text/css" height="850px" preserveAspectRatio="none" style="width:659px;height:850px;" version="1.1" viewBox="0 0 659 850" width="659px" zoomAndPan="magnify"><defs/><g><rect fill="none" height="50.582" style="stroke:#FFFFFF;stroke-width:1.5;" width="195.6816" x="10" y="176.2031"/><rect fill="none" height="50.582" style="stroke:#FFFFFF;stroke-width:1.5;" width="427.9023" x="10" y="699.5684"/><line style="stroke:#FFFFFF;stroke-width:0.5;stroke-dasharray:5.0,5.0;" x1="37" x2="37" y1="83.6211" y2="767.1504"/><line style="stroke:#FFFFFF;stroke-width:0.5;stroke-dasharray:5.0,5.0;" x1="127.5586" x2="127.5586" y1="83.6211" y2="767.1504"/><line style="stroke:#FFFFFF;stroke-width:0.5;stroke-dasharray:5.0,5.0;" x1="253.0547" x2="253.0547" y1="83.6211" y2="767.1504"/><line style="stroke:#FFFFFF;stroke-width:0.5;stroke-dasharray:5.0,5.0;" x1="372.4131" x2="372.4131" y1="83.6211" y2="767.1504"/><line style="stroke:#FFFFFF;stroke-width:0.5;stroke-dasharray:5.0,5.0;" x1="502.9023" x2="502.9023" y1="83.6211" y2="767.1504"/><line style="stroke:#FFFFFF;stroke-width:0.5;stroke-dasharray:5.0,5.0;" x1="617.626" x2="617.626" y1="83.6211" y2="767.1504"/><text fill="#FFFFFF" font-family="sans-serif" font-size="14" lengthAdjust="spacing" textLength="29.5586" x="20" y="80.1074">User</text><ellipse cx="37.7793" cy="13.5" fill="none" rx="8" ry="8" style="stroke:#FFFFFF;stroke-width:0.5;"/><path d="M37.7793,21.5 L37.7793,48.5 M24.7793,29.5 L50.7793,29.5 M37.7793,48.5 L24.7793,63.5 M37.7793,48.5 L50.7793,63.5 " fill="none" style="stroke:#FFFFFF;stroke-width:0.5;"/><text fill="#FFFFFF" font-family="sans-serif" font-size="14" lengthAdjust="spacing" textLength="29.5586" x="20" y="781.2578">User</text><ellipse cx="37.7793" cy="793.2715" fill="none" rx="8" ry="8" style="stroke:#FFFFFF;stroke-width:0.5;"/><path d="M37.7793,801.2715 L37.7793,828.2715 M24.7793,809.2715 L50.7793,809.2715 M37.7793,828.2715 L24.7793,843.2715 M37.7793,828.2715 L50.7793,843.2715 " fill="none" style="stroke:#FFFFFF;stroke-width:0.5;"/><rect fill="none" height="32.6211" rx="2.5" ry="2.5" style="stroke:#FFFFFF;stroke-width:0.5;" width="124.4961" x="65.5586" y="50"/><text fill="#FFFFFF" font-family="sans-serif" font-size="14" lengthAdjust="spacing" textLength="110.4961" x="72.5586" y="72.1074">FootballController</text><rect fill="none" height="32.6211" rx="2.5" ry="2.5" style="stroke:#FFFFFF;stroke-width:0.5;" width="124.4961" x="65.5586" y="766.1504"/><text fill="#FFFFFF" font-family="sans-serif" font-size="14" lengthAdjust="spacing" textLength="110.4961" x="72.5586" y="788.2578">FootballController</text><rect fill="none" height="32.6211" rx="2.5" ry="2.5" style="stroke:#FFFFFF;stroke-width:0.5;" width="107.3584" x="200.0547" y="50"/><text fill="#FFFFFF" font-family="sans-serif" font-size="14" lengthAdjust="spacing" textLength="93.3584" x="207.0547" y="72.1074">FactoryService</text><rect fill="none" height="32.6211" rx="2.5" ry="2.5" style="stroke:#FFFFFF;stroke-width:0.5;" width="107.3584" x="200.0547" y="766.1504"/><text fill="#FFFFFF" font-family="sans-serif" font-size="14" lengthAdjust="spacing" textLength="93.3584" x="207.0547" y="788.2578">FactoryService</text><rect fill="none" height="32.6211" rx="2.5" ry="2.5" style="stroke:#FFFFFF;stroke-width:0.5;" width="110.4893" x="317.4131" y="50"/><text fill="#FFFFFF" font-family="sans-serif" font-size="14" lengthAdjust="spacing" textLength="96.4893" x="324.4131" y="72.1074">FootballService</text><rect fill="none" height="32.6211" rx="2.5" ry="2.5" style="stroke:#FFFFFF;stroke-width:0.5;" width="110.4893" x="317.4131" y="766.1504"/><text fill="#FFFFFF" font-family="sans-serif" font-size="14" lengthAdjust="spacing" textLength="96.4893" x="324.4131" y="788.2578">FootballService</text><rect fill="none" height="32.6211" rx="2.5" ry="2.5" style="stroke:#FFFFFF;stroke-width:0.5;" width="130.7236" x="437.9023" y="50"/><text fill="#FFFFFF" font-family="sans-serif" font-size="14" lengthAdjust="spacing" textLength="116.7236" x="444.9023" y="72.1074">FootballRepository</text><rect fill="none" height="32.6211" rx="2.5" ry="2.5" style="stroke:#FFFFFF;stroke-width:0.5;" width="130.7236" x="437.9023" y="766.1504"/><text fill="#FFFFFF" font-family="sans-serif" font-size="14" lengthAdjust="spacing" textLength="116.7236" x="444.9023" y="788.2578">FootballRepository</text><text fill="#FFFFFF" font-family="sans-serif" font-size="14" lengthAdjust="spacing" textLength="73.9102" x="578.626" y="80.1074">MySQL_DB</text><path d="M600.5811,29 C600.5811,19 618.5811,19 618.5811,19 C618.5811,19 636.5811,19 636.5811,29 L636.5811,55 C636.5811,65 618.5811,65 618.5811,65 C618.5811,65 600.5811,65 600.5811,55 L600.5811,29 " fill="none" style="stroke:#FFFFFF;stroke-width:1.5;"/><path d="M600.5811,29 C600.5811,39 618.5811,39 618.5811,39 C618.5811,39 636.5811,39 636.5811,29 " fill="none" style="stroke:#FFFFFF;stroke-width:1.5;"/><text fill="#FFFFFF" font-family="sans-serif" font-size="14" lengthAdjust="spacing" textLength="73.9102" x="578.626" y="781.2578">MySQL_DB</text><path d="M600.5811,794.7715 C600.5811,784.7715 618.5811,784.7715 618.5811,784.7715 C618.5811,784.7715 636.5811,784.7715 636.5811,794.7715 L636.5811,820.7715 C636.5811,830.7715 618.5811,830.7715 618.5811,830.7715 C618.5811,830.7715 600.5811,830.7715 600.5811,820.7715 L600.5811,794.7715 " fill="none" style="stroke:#FFFFFF;stroke-width:1.5;"/><path d="M600.5811,794.7715 C600.5811,804.7715 618.5811,804.7715 618.5811,804.7715 C618.5811,804.7715 636.5811,804.7715 636.5811,794.7715 " fill="none" style="stroke:#FFFFFF;stroke-width:1.5;"/><polygon fill="#FFFFFF" points="115.8066,112.9121,125.8066,116.9121,115.8066,120.9121,119.8066,116.9121" style="stroke:#FFFFFF;stroke-width:1.0;"/><line style="stroke:#FFFFFF;stroke-width:1.0;" x1="37.7793" x2="121.8066" y1="116.9121" y2="116.9121"/><text fill="#FFFFFF" font-family="sans-serif" font-size="13" lengthAdjust="spacing" textLength="43.3608" x="44.7793" y="111.6494">request</text><line style="stroke:#FFFFFF;stroke-width:1.0;" x1="127.8066" x2="169.8066" y1="148.2031" y2="148.2031"/><line style="stroke:#FFFFFF;stroke-width:1.0;" x1="169.8066" x2="169.8066" y1="148.2031" y2="161.2031"/><line style="stroke:#FFFFFF;stroke-width:1.0;" x1="128.8066" x2="169.8066" y1="161.2031" y2="161.2031"/><polygon fill="#FFFFFF" points="138.8066,157.2031,128.8066,161.2031,138.8066,165.2031,134.8066,161.2031" style="stroke:#FFFFFF;stroke-width:1.0;"/><text fill="#FFFFFF" font-family="sans-serif" font-size="13" lengthAdjust="spacing" textLength="44.8081" x="134.8066" y="142.9404">validate</text><path d="M10,176.2031 L70.1709,176.2031 L70.1709,185.4941 L60.1709,195.4941 L10,195.4941 L10,176.2031 " fill="none" style="stroke:#FFFFFF;stroke-width:1.5;"/><rect fill="none" height="50.582" style="stroke:#FFFFFF;stroke-width:1.5;" width="195.6816" x="10" y="176.2031"/><text fill="#FFFFFF" font-family="sans-serif" font-size="13" font-weight="bold" lengthAdjust="spacing" textLength="15.1709" x="25" y="191.2314">alt</text><text fill="#FFFFFF" font-family="sans-serif" font-size="11" font-weight="bold" lengthAdjust="spacing" textLength="115.5107" x="85.1709" y="190.0732">[Validation Exception]</text><polygon fill="#FFFFFF" points="48.7793,214.7852,38.7793,218.7852,48.7793,222.7852,44.7793,218.7852" style="stroke:#FFFFFF;stroke-width:1.0;"/><line style="stroke:#FFFFFF;stroke-width:1.0;" x1="42.7793" x2="126.8066" y1="218.7852" y2="218.7852"/><text fill="#FFFFFF" font-family="sans-serif" font-size="13" lengthAdjust="spacing" textLength="52.749" x="54.7793" y="213.5225">message</text><polygon fill="#FFFFFF" points="241.7339,253.0762,251.7339,257.0762,241.7339,261.0762,245.7339,257.0762" style="stroke:#FFFFFF;stroke-width:1.0;"/><line style="stroke:#FFFFFF;stroke-width:1.0;" x1="127.8066" x2="247.7339" y1="257.0762" y2="257.0762"/><text fill="#FFFFFF" font-family="sans-serif" font-size="13" lengthAdjust="spacing" textLength="19.5063" x="134.8066" y="251.8135">call</text><line style="stroke:#FFFFFF;stroke-width:1.0;" x1="253.7339" x2="295.7339" y1="288.3672" y2="288.3672"/><line style="stroke:#FFFFFF;stroke-width:1.0;" x1="295.7339" x2="295.7339" y1="288.3672" y2="301.3672"/><line style="stroke:#FFFFFF;stroke-width:1.0;" x1="254.7339" x2="295.7339" y1="301.3672" y2="301.3672"/><polygon fill="#FFFFFF" points="264.7339,297.3672,254.7339,301.3672,264.7339,305.3672,260.7339,301.3672" style="stroke:#FFFFFF;stroke-width:1.0;"/><text fill="#FFFFFF" font-family="sans-serif" font-size="13" lengthAdjust="spacing" textLength="45.519" x="260.7339" y="283.1045">process</text><polygon fill="#FFFFFF" points="360.6577,328.6582,370.6577,332.6582,360.6577,336.6582,364.6577,332.6582" style="stroke:#FFFFFF;stroke-width:1.0;"/><line style="stroke:#FFFFFF;stroke-width:1.0;" x1="253.7339" x2="366.6577" y1="332.6582" y2="332.6582"/><text fill="#FFFFFF" font-family="sans-serif" font-size="13" lengthAdjust="spacing" textLength="19.5063" x="260.7339" y="327.3955">call</text><line style="stroke:#FFFFFF;stroke-width:1.0;" x1="372.6577" x2="414.6577" y1="363.9492" y2="363.9492"/><line style="stroke:#FFFFFF;stroke-width:1.0;" x1="414.6577" x2="414.6577" y1="363.9492" y2="376.9492"/><line style="stroke:#FFFFFF;stroke-width:1.0;" x1="373.6577" x2="414.6577" y1="376.9492" y2="376.9492"/><polygon fill="#FFFFFF" points="383.6577,372.9492,373.6577,376.9492,383.6577,380.9492,379.6577,376.9492" style="stroke:#FFFFFF;stroke-width:1.0;"/><text fill="#FFFFFF" font-family="sans-serif" font-size="13" lengthAdjust="spacing" textLength="95.3735" x="379.6577" y="358.6865">check &amp; process</text><polygon fill="#FFFFFF" points="491.2642,404.2402,501.2642,408.2402,491.2642,412.2402,495.2642,408.2402" style="stroke:#FFFFFF;stroke-width:1.0;"/><line style="stroke:#FFFFFF;stroke-width:1.0;" x1="372.6577" x2="497.2642" y1="408.2402" y2="408.2402"/><text fill="#FFFFFF" font-family="sans-serif" font-size="13" lengthAdjust="spacing" textLength="19.5063" x="379.6577" y="402.9775">call</text><polygon fill="#FFFFFF" points="606.5811,435.5313,616.5811,439.5313,606.5811,443.5313,610.5811,439.5313" style="stroke:#FFFFFF;stroke-width:1.0;"/><line style="stroke:#FFFFFF;stroke-width:1.0;" x1="503.2642" x2="612.5811" y1="439.5313" y2="439.5313"/><text fill="#FFFFFF" font-family="sans-serif" font-size="13" lengthAdjust="spacing" textLength="32.519" x="510.2642" y="434.2686">query</text><polygon fill="#FFFFFF" points="514.2642,466.8223,504.2642,470.8223,514.2642,474.8223,510.2642,470.8223" style="stroke:#FFFFFF;stroke-width:1.0;"/><line style="stroke:#FFFFFF;stroke-width:1.0;stroke-dasharray:2.0,2.0;" x1="508.2642" x2="617.5811" y1="470.8223" y2="470.8223"/><text fill="#FFFFFF" font-family="sans-serif" font-size="13" lengthAdjust="spacing" textLength="31.7891" x="520.2642" y="465.5596">result</text><polygon fill="#FFFFFF" points="383.6577,498.1133,373.6577,502.1133,383.6577,506.1133,379.6577,502.1133" style="stroke:#FFFFFF;stroke-width:1.0;"/><line style="stroke:#FFFFFF;stroke-width:1.0;stroke-dasharray:2.0,2.0;" x1="377.6577" x2="502.2642" y1="502.1133" y2="502.1133"/><text fill="#FFFFFF" font-family="sans-serif" font-size="13" lengthAdjust="spacing" textLength="25.3018" x="389.6577" y="496.8506">data</text><line style="stroke:#FFFFFF;stroke-width:1.0;" x1="372.6577" x2="414.6577" y1="533.4043" y2="533.4043"/><line style="stroke:#FFFFFF;stroke-width:1.0;" x1="414.6577" x2="414.6577" y1="533.4043" y2="546.4043"/><line style="stroke:#FFFFFF;stroke-width:1.0;" x1="373.6577" x2="414.6577" y1="546.4043" y2="546.4043"/><polygon fill="#FFFFFF" points="383.6577,542.4043,373.6577,546.4043,383.6577,550.4043,379.6577,546.4043" style="stroke:#FFFFFF;stroke-width:1.0;"/><text fill="#FFFFFF" font-family="sans-serif" font-size="13" lengthAdjust="spacing" textLength="95.3735" x="379.6577" y="528.1416">check &amp; process</text><polygon fill="#FFFFFF" points="264.7339,573.6953,254.7339,577.6953,264.7339,581.6953,260.7339,577.6953" style="stroke:#FFFFFF;stroke-width:1.0;"/><line style="stroke:#FFFFFF;stroke-width:1.0;stroke-dasharray:2.0,2.0;" x1="258.7339" x2="371.6577" y1="577.6953" y2="577.6953"/><text fill="#FFFFFF" font-family="sans-serif" font-size="13" lengthAdjust="spacing" textLength="53.479" x="270.7339" y="572.4326">response</text><line style="stroke:#FFFFFF;stroke-width:1.0;" x1="253.7339" x2="295.7339" y1="608.9863" y2="608.9863"/><line style="stroke:#FFFFFF;stroke-width:1.0;" x1="295.7339" x2="295.7339" y1="608.9863" y2="621.9863"/><line style="stroke:#FFFFFF;stroke-width:1.0;" x1="254.7339" x2="295.7339" y1="621.9863" y2="621.9863"/><polygon fill="#FFFFFF" points="264.7339,617.9863,254.7339,621.9863,264.7339,625.9863,260.7339,621.9863" style="stroke:#FFFFFF;stroke-width:1.0;"/><text fill="#FFFFFF" font-family="sans-serif" font-size="13" lengthAdjust="spacing" textLength="45.519" x="260.7339" y="603.7236">process</text><polygon fill="#FFFFFF" points="138.8066,649.2773,128.8066,653.2773,138.8066,657.2773,134.8066,653.2773" style="stroke:#FFFFFF;stroke-width:1.0;"/><line style="stroke:#FFFFFF;stroke-width:1.0;stroke-dasharray:2.0,2.0;" x1="132.8066" x2="252.7339" y1="653.2773" y2="653.2773"/><text fill="#FFFFFF" font-family="sans-serif" font-size="13" lengthAdjust="spacing" textLength="53.479" x="144.8066" y="648.0146">response</text><polygon fill="#FFFFFF" points="48.7793,680.5684,38.7793,684.5684,48.7793,688.5684,44.7793,684.5684" style="stroke:#FFFFFF;stroke-width:1.0;"/><line style="stroke:#FFFFFF;stroke-width:1.0;stroke-dasharray:2.0,2.0;" x1="42.7793" x2="126.8066" y1="684.5684" y2="684.5684"/><text fill="#FFFFFF" font-family="sans-serif" font-size="13" lengthAdjust="spacing" textLength="53.479" x="54.7793" y="679.3057">response</text><path d="M10,699.5684 L70.1709,699.5684 L70.1709,708.8594 L60.1709,718.8594 L10,718.8594 L10,699.5684 " fill="none" style="stroke:#FFFFFF;stroke-width:1.5;"/><rect fill="none" height="50.582" style="stroke:#FFFFFF;stroke-width:1.5;" width="427.9023" x="10" y="699.5684"/><text fill="#FFFFFF" font-family="sans-serif" font-size="13" font-weight="bold" lengthAdjust="spacing" textLength="15.1709" x="25" y="714.5967">alt</text><text fill="#FFFFFF" font-family="sans-serif" font-size="11" font-weight="bold" lengthAdjust="spacing" textLength="202.3184" x="85.1709" y="713.4385">[Biz Exception or Resource Exception]</text><polygon fill="#FFFFFF" points="48.7793,738.1504,38.7793,742.1504,48.7793,746.1504,44.7793,742.1504" style="stroke:#FFFFFF;stroke-width:1.0;"/><line style="stroke:#FFFFFF;stroke-width:1.0;" x1="42.7793" x2="371.6577" y1="742.1504" y2="742.1504"/><text fill="#FFFFFF" font-family="sans-serif" font-size="13" lengthAdjust="spacing" textLength="52.749" x="54.7793" y="736.8877">message</text><!--SRC=[hLCzKyCm3DtrAyJIhVo03Wm5oW83xPMLSnmTzU7QnXyzmgz7IOwcoIaiuCcsdfwUfUShuxGjDM7AZQMDZmyc7qfr7ShH0YYTVSHzeWWGLCn6cw1SnettkLBMtdgNexUMuwDmbzViA9wC9Z7pjzYMWa-cPG2eLLQLIeHFpUxvyVLkZIhrUu1M5ovl13MumaWVXL868JYNSbBMS3q2PJE-z0VZ7Tv_QWhj3f2NJDXfMU6HKb9l1EJgkSgZtd2APWXCRYLSY5upkmGTz_JCERcMaGVIxxWOsEUJXh5CArn46DzDXo7SVvvWVrhEyKHAnMQHITJR-k6VNYOrcUK4xnBzPI3pZlpX5emnMEWCwsouDb-3_v0_uvQIBv7hoAwy42nOyXi0]--></g></svg>