<svg xmlns="http://www.w3.org/2000/svg" xmlns:xlink="http://www.w3.org/1999/xlink" contentStyleType="text/css" height="699px" preserveAspectRatio="none" style="width:542px;height:699px;" version="1.1" viewBox="0 0 542 699" width="542px" zoomAndPan="magnify"><defs/><g><rect fill="none" height="50.582" style="stroke:#FFFFFF;stroke-width:1.5;" width="195.6816" x="10" y="176.2031"/><rect fill="none" height="50.582" style="stroke:#FFFFFF;stroke-width:1.5;" width="310.5439" x="10" y="548.4043"/><line style="stroke:#FFFFFF;stroke-width:0.5;stroke-dasharray:5.0,5.0;" x1="37" x2="37" y1="83.6211" y2="615.9863"/><line style="stroke:#FFFFFF;stroke-width:0.5;stroke-dasharray:5.0,5.0;" x1="127.5586" x2="127.5586" y1="83.6211" y2="615.9863"/><line style="stroke:#FFFFFF;stroke-width:0.5;stroke-dasharray:5.0,5.0;" x1="255.0547" x2="255.0547" y1="83.6211" y2="615.9863"/><line style="stroke:#FFFFFF;stroke-width:0.5;stroke-dasharray:5.0,5.0;" x1="385.5439" x2="385.5439" y1="83.6211" y2="615.9863"/><line style="stroke:#FFFFFF;stroke-width:0.5;stroke-dasharray:5.0,5.0;" x1="500.2676" x2="500.2676" y1="83.6211" y2="615.9863"/><text fill="#FFFFFF" font-family="sans-serif" font-size="14" lengthAdjust="spacing" textLength="29.5586" x="20" y="80.1074">User</text><ellipse cx="37.7793" cy="13.5" fill="none" rx="8" ry="8" style="stroke:#FFFFFF;stroke-width:0.5;"/><path d="M37.7793,21.5 L37.7793,48.5 M24.7793,29.5 L50.7793,29.5 M37.7793,48.5 L24.7793,63.5 M37.7793,48.5 L50.7793,63.5 " fill="none" style="stroke:#FFFFFF;stroke-width:0.5;"/><text fill="#FFFFFF" font-family="sans-serif" font-size="14" lengthAdjust="spacing" textLength="29.5586" x="20" y="630.0938">User</text><ellipse cx="37.7793" cy="642.1074" fill="none" rx="8" ry="8" style="stroke:#FFFFFF;stroke-width:0.5;"/><path d="M37.7793,650.1074 L37.7793,677.1074 M24.7793,658.1074 L50.7793,658.1074 M37.7793,677.1074 L24.7793,692.1074 M37.7793,677.1074 L50.7793,692.1074 " fill="none" style="stroke:#FFFFFF;stroke-width:0.5;"/><rect fill="none" height="32.6211" rx="2.5" ry="2.5" style="stroke:#FFFFFF;stroke-width:0.5;" width="124.4961" x="65.5586" y="50"/><text fill="#FFFFFF" font-family="sans-serif" font-size="14" lengthAdjust="spacing" textLength="110.4961" x="72.5586" y="72.1074">FootballController</text><rect fill="none" height="32.6211" rx="2.5" ry="2.5" style="stroke:#FFFFFF;stroke-width:0.5;" width="124.4961" x="65.5586" y="614.9863"/><text fill="#FFFFFF" font-family="sans-serif" font-size="14" lengthAdjust="spacing" textLength="110.4961" x="72.5586" y="637.0938">FootballController</text><rect fill="none" height="32.6211" rx="2.5" ry="2.5" style="stroke:#FFFFFF;stroke-width:0.5;" width="110.4893" x="200.0547" y="50"/><text fill="#FFFFFF" font-family="sans-serif" font-size="14" lengthAdjust="spacing" textLength="96.4893" x="207.0547" y="72.1074">FootballService</text><rect fill="none" height="32.6211" rx="2.5" ry="2.5" style="stroke:#FFFFFF;stroke-width:0.5;" width="110.4893" x="200.0547" y="614.9863"/><text fill="#FFFFFF" font-family="sans-serif" font-size="14" lengthAdjust="spacing" textLength="96.4893" x="207.0547" y="637.0938">FootballService</text><rect fill="none" height="32.6211" rx="2.5" ry="2.5" style="stroke:#FFFFFF;stroke-width:0.5;" width="130.7236" x="320.5439" y="50"/><text fill="#FFFFFF" font-family="sans-serif" font-size="14" lengthAdjust="spacing" textLength="116.7236" x="327.5439" y="72.1074">FootballRepository</text><rect fill="none" height="32.6211" rx="2.5" ry="2.5" style="stroke:#FFFFFF;stroke-width:0.5;" width="130.7236" x="320.5439" y="614.9863"/><text fill="#FFFFFF" font-family="sans-serif" font-size="14" lengthAdjust="spacing" textLength="116.7236" x="327.5439" y="637.0938">FootballRepository</text><text fill="#FFFFFF" font-family="sans-serif" font-size="14" lengthAdjust="spacing" textLength="73.9102" x="461.2676" y="80.1074">MySQL_DB</text><path d="M483.2227,29 C483.2227,19 501.2227,19 501.2227,19 C501.2227,19 519.2227,19 519.2227,29 L519.2227,55 C519.2227,65 501.2227,65 501.2227,65 C501.2227,65 483.2227,65 483.2227,55 L483.2227,29 " fill="none" style="stroke:#FFFFFF;stroke-width:1.5;"/><path d="M483.2227,29 C483.2227,39 501.2227,39 501.2227,39 C501.2227,39 519.2227,39 519.2227,29 " fill="none" style="stroke:#FFFFFF;stroke-width:1.5;"/><text fill="#FFFFFF" font-family="sans-serif" font-size="14" lengthAdjust="spacing" textLength="73.9102" x="461.2676" y="630.0938">MySQL_DB</text><path d="M483.2227,643.6074 C483.2227,633.6074 501.2227,633.6074 501.2227,633.6074 C501.2227,633.6074 519.2227,633.6074 519.2227,643.6074 L519.2227,669.6074 C519.2227,679.6074 501.2227,679.6074 501.2227,679.6074 C501.2227,679.6074 483.2227,679.6074 483.2227,669.6074 L483.2227,643.6074 " fill="none" style="stroke:#FFFFFF;stroke-width:1.5;"/><path d="M483.2227,643.6074 C483.2227,653.6074 501.2227,653.6074 501.2227,653.6074 C501.2227,653.6074 519.2227,653.6074 519.2227,643.6074 " fill="none" style="stroke:#FFFFFF;stroke-width:1.5;"/><polygon fill="#FFFFFF" points="115.8066,112.9121,125.8066,116.9121,115.8066,120.9121,119.8066,116.9121" style="stroke:#FFFFFF;stroke-width:1.0;"/><line style="stroke:#FFFFFF;stroke-width:1.0;" x1="37.7793" x2="121.8066" y1="116.9121" y2="116.9121"/><text fill="#FFFFFF" font-family="sans-serif" font-size="13" lengthAdjust="spacing" textLength="43.3608" x="44.7793" y="111.6494">request</text><line style="stroke:#FFFFFF;stroke-width:1.0;" x1="127.8066" x2="169.8066" y1="148.2031" y2="148.2031"/><line style="stroke:#FFFFFF;stroke-width:1.0;" x1="169.8066" x2="169.8066" y1="148.2031" y2="161.2031"/><line style="stroke:#FFFFFF;stroke-width:1.0;" x1="128.8066" x2="169.8066" y1="161.2031" y2="161.2031"/><polygon fill="#FFFFFF" points="138.8066,157.2031,128.8066,161.2031,138.8066,165.2031,134.8066,161.2031" style="stroke:#FFFFFF;stroke-width:1.0;"/><text fill="#FFFFFF" font-family="sans-serif" font-size="13" lengthAdjust="spacing" textLength="44.8081" x="134.8066" y="142.9404">validate</text><path d="M10,176.2031 L70.1709,176.2031 L70.1709,185.4941 L60.1709,195.4941 L10,195.4941 L10,176.2031 " fill="none" style="stroke:#FFFFFF;stroke-width:1.5;"/><rect fill="none" height="50.582" style="stroke:#FFFFFF;stroke-width:1.5;" width="195.6816" x="10" y="176.2031"/><text fill="#FFFFFF" font-family="sans-serif" font-size="13" font-weight="bold" lengthAdjust="spacing" textLength="15.1709" x="25" y="191.2314">alt</text><text fill="#FFFFFF" font-family="sans-serif" font-size="11" font-weight="bold" lengthAdjust="spacing" textLength="115.5107" x="85.1709" y="190.0732">[Validation Exception]</text><polygon fill="#FFFFFF" points="48.7793,214.7852,38.7793,218.7852,48.7793,222.7852,44.7793,218.7852" style="stroke:#FFFFFF;stroke-width:1.0;"/><line style="stroke:#FFFFFF;stroke-width:1.0;" x1="42.7793" x2="126.8066" y1="218.7852" y2="218.7852"/><text fill="#FFFFFF" font-family="sans-serif" font-size="13" lengthAdjust="spacing" textLength="52.749" x="54.7793" y="213.5225">message</text><polygon fill="#FFFFFF" points="243.2993,253.0762,253.2993,257.0762,243.2993,261.0762,247.2993,257.0762" style="stroke:#FFFFFF;stroke-width:1.0;"/><line style="stroke:#FFFFFF;stroke-width:1.0;" x1="127.8066" x2="249.2993" y1="257.0762" y2="257.0762"/><text fill="#FFFFFF" font-family="sans-serif" font-size="13" lengthAdjust="spacing" textLength="19.5063" x="134.8066" y="251.8135">call</text><line style="stroke:#FFFFFF;stroke-width:1.0;" x1="255.2993" x2="297.2993" y1="288.3672" y2="288.3672"/><line style="stroke:#FFFFFF;stroke-width:1.0;" x1="297.2993" x2="297.2993" y1="288.3672" y2="301.3672"/><line style="stroke:#FFFFFF;stroke-width:1.0;" x1="256.2993" x2="297.2993" y1="301.3672" y2="301.3672"/><polygon fill="#FFFFFF" points="266.2993,297.3672,256.2993,301.3672,266.2993,305.3672,262.2993,301.3672" style="stroke:#FFFFFF;stroke-width:1.0;"/><text fill="#FFFFFF" font-family="sans-serif" font-size="13" lengthAdjust="spacing" textLength="95.3735" x="262.2993" y="283.1045">check &amp; process</text><polygon fill="#FFFFFF" points="373.9058,328.6582,383.9058,332.6582,373.9058,336.6582,377.9058,332.6582" style="stroke:#FFFFFF;stroke-width:1.0;"/><line style="stroke:#FFFFFF;stroke-width:1.0;" x1="255.2993" x2="379.9058" y1="332.6582" y2="332.6582"/><text fill="#FFFFFF" font-family="sans-serif" font-size="13" lengthAdjust="spacing" textLength="19.5063" x="262.2993" y="327.3955">call</text><polygon fill="#FFFFFF" points="489.2227,359.9492,499.2227,363.9492,489.2227,367.9492,493.2227,363.9492" style="stroke:#FFFFFF;stroke-width:1.0;"/><line style="stroke:#FFFFFF;stroke-width:1.0;" x1="385.9058" x2="495.2227" y1="363.9492" y2="363.9492"/><text fill="#FFFFFF" font-family="sans-serif" font-size="13" lengthAdjust="spacing" textLength="32.519" x="392.9058" y="358.6865">query</text><polygon fill="#FFFFFF" points="396.9058,391.2402,386.9058,395.2402,396.9058,399.2402,392.9058,395.2402" style="stroke:#FFFFFF;stroke-width:1.0;"/><line style="stroke:#FFFFFF;stroke-width:1.0;stroke-dasharray:2.0,2.0;" x1="390.9058" x2="500.2227" y1="395.2402" y2="395.2402"/><text fill="#FFFFFF" font-family="sans-serif" font-size="13" lengthAdjust="spacing" textLength="31.7891" x="402.9058" y="389.9775">result</text><polygon fill="#FFFFFF" points="266.2993,422.5313,256.2993,426.5313,266.2993,430.5313,262.2993,426.5313" style="stroke:#FFFFFF;stroke-width:1.0;"/><line style="stroke:#FFFFFF;stroke-width:1.0;stroke-dasharray:2.0,2.0;" x1="260.2993" x2="384.9058" y1="426.5313" y2="426.5313"/><text fill="#FFFFFF" font-family="sans-serif" font-size="13" lengthAdjust="spacing" textLength="25.3018" x="272.2993" y="421.2686">data</text><line style="stroke:#FFFFFF;stroke-width:1.0;" x1="255.2993" x2="297.2993" y1="457.8223" y2="457.8223"/><line style="stroke:#FFFFFF;stroke-width:1.0;" x1="297.2993" x2="297.2993" y1="457.8223" y2="470.8223"/><line style="stroke:#FFFFFF;stroke-width:1.0;" x1="256.2993" x2="297.2993" y1="470.8223" y2="470.8223"/><polygon fill="#FFFFFF" points="266.2993,466.8223,256.2993,470.8223,266.2993,474.8223,262.2993,470.8223" style="stroke:#FFFFFF;stroke-width:1.0;"/><text fill="#FFFFFF" font-family="sans-serif" font-size="13" lengthAdjust="spacing" textLength="95.3735" x="262.2993" y="452.5596">check &amp; process</text><polygon fill="#FFFFFF" points="138.8066,498.1133,128.8066,502.1133,138.8066,506.1133,134.8066,502.1133" style="stroke:#FFFFFF;stroke-width:1.0;"/><line style="stroke:#FFFFFF;stroke-width:1.0;stroke-dasharray:2.0,2.0;" x1="132.8066" x2="254.2993" y1="502.1133" y2="502.1133"/><text fill="#FFFFFF" font-family="sans-serif" font-size="13" lengthAdjust="spacing" textLength="53.479" x="144.8066" y="496.8506">response</text><polygon fill="#FFFFFF" points="48.7793,529.4043,38.7793,533.4043,48.7793,537.4043,44.7793,533.4043" style="stroke:#FFFFFF;stroke-width:1.0;"/><line style="stroke:#FFFFFF;stroke-width:1.0;stroke-dasharray:2.0,2.0;" x1="42.7793" x2="126.8066" y1="533.4043" y2="533.4043"/><text fill="#FFFFFF" font-family="sans-serif" font-size="13" lengthAdjust="spacing" textLength="53.479" x="54.7793" y="528.1416">response</text><path d="M10,548.4043 L70.1709,548.4043 L70.1709,557.6953 L60.1709,567.6953 L10,567.6953 L10,548.4043 " fill="none" style="stroke:#FFFFFF;stroke-width:1.5;"/><rect fill="none" height="50.582" style="stroke:#FFFFFF;stroke-width:1.5;" width="310.5439" x="10" y="548.4043"/><text fill="#FFFFFF" font-family="sans-serif" font-size="13" font-weight="bold" lengthAdjust="spacing" textLength="15.1709" x="25" y="563.4326">alt</text><text fill="#FFFFFF" font-family="sans-serif" font-size="11" font-weight="bold" lengthAdjust="spacing" textLength="202.3184" x="85.1709" y="562.2744">[Biz Exception or Resource Exception]</text><polygon fill="#FFFFFF" points="48.7793,586.9863,38.7793,590.9863,48.7793,594.9863,44.7793,590.9863" style="stroke:#FFFFFF;stroke-width:1.0;"/><line style="stroke:#FFFFFF;stroke-width:1.0;" x1="42.7793" x2="254.2993" y1="590.9863" y2="590.9863"/><text fill="#FFFFFF" font-family="sans-serif" font-size="13" lengthAdjust="spacing" textLength="52.749" x="54.7793" y="585.7236">message</text><!--SRC=[hLAnJWCn3Dtz5MPXAn_GWQ50MUX0ArXHBcVHY3GESL9nV3s-EyHLLGuMCjbvjf_pNYvSiBwqX98xJsjEzoxlItCLoy4369ivuPDG0eWcPMTTD27ZcZatnliR3ZcnzuhNu1sbexDKnROKMPoExm1QaqrZX73JxHuVNcvNQ6IC0NfoN5nNA769YTuBIOOAEDToDDuf7u7n6P_7n770kmzBiOy0zTG73hiiyK0YvfM0Gli7yxS0scCrW_FhUkMUx1jUOanibUYtfad3SuOJHEi7ARL4nLAvnsmnDoUH59-hawhxzkRzqylcRPR8GQYgzkJBJzdWxSfzJgQYVkCj2PUaF7MhJrQl-Fm5]--></g></svg>